<?xml version="1.0" encoding="utf-8"?>
<!-- Generator: Adobe Illustrator 26.1.0, SVG Export Plug-In . SVG Version: 6.00 Build 0)  -->
<svg version="1.1" id="Layer_1" xmlns="http://www.w3.org/2000/svg" xmlns:xlink="http://www.w3.org/1999/xlink" x="0px" y="0px"
	 viewBox="0 0 128 128" style="enable-background:new 0 0 128 128;" xml:space="preserve">
<style type="text/css">
	.st0{opacity:0.1;}
</style>
<g id="Layer_1-2" class="st0">
	<path d="M29.5,88.5l-13.7-9.8l-3,4.5l13.6,9.7c1.2,0.8,2.9,0.5,3.7-0.7C30.9,91,30.7,89.3,29.5,88.5z"/>
	<polygon points="7.5,72.8 4.5,77.3 10.8,81.7 13.8,77.3 	"/>
	<path d="M0,49.8c1.1-0.8,2.2-1.5,3.4-2.3c-0.8-2-1.9-4-3.4-5.6V49.8z"/>
	<polygon points="5.5,71.4 0,67.5 0,74.1 2.5,75.9 	"/>
	<path d="M104.5,50.9l-2.8-1.9c-1.2-0.8-2.9-0.6-3.7,0.7c-0.4,0.6-0.6,1.3-0.4,2c0.1,0.7,0.5,1.3,1.1,1.7l3.3,2.2
		C102.8,54.1,103.7,52.5,104.5,50.9z"/>
	<path d="M124.5,38.8c-3.6-2.1-7.5-3.5-11.6-4.1c-0.2,1-0.5,2-0.7,2.9c3,0.8,5.9,2,8.6,3.6c3.2,2.1,5.7,5.1,7.3,8.6v-7.9
		C127,40.6,125.8,39.6,124.5,38.8z"/>
	<path d="M126,51.2c-1.4-3.3-3.7-6-6.6-8c-2.5-1.5-5.2-2.6-8-3.3c-2.2,7.3-5.5,14.1-9.8,20.4l9.2,6.4
		C115.1,60.8,120.2,55.6,126,51.2z"/>
	<path d="M118.8,61c-1.2,1.3-2.4,2.7-3.6,4.1l12.8,9v-6.6L118.8,61z"/>
	<path d="M80.8,102.7L68.5,115l1.9,1.9l11.4-11.4c0.4-0.4,0.5-1.2,0-1.6c0,0,0,0,0,0L80.8,102.7z"/>
	<path d="M46.9,128h7.8c-0.3-0.5-0.2-1.1,0.2-1.6l6.1-6.1c0.5-0.5,1.3-0.5,1.9,0c0.5,0.5,0.5,1.3,0,1.9l-5.8,5.8h1.5l5-5
		c0.6-0.5,1.4-0.4,1.9,0.2c0.4,0.5,0.4,1.2,0,1.7l-3.1,3.1h9.4c0.7-1.1,0.7-2.5,0.1-3.6l-3-5.4l-7.5-7.6L47,125.7l0.8,0.8l-1.2,1.2
		L46.9,128z M52.2,123.8l6.1-6.1c0.5-0.5,1.3-0.5,1.9,0c0.5,0.5,0.5,1.3,0,1.9l-6.1,6.1c-0.5,0.5-1.3,0.5-1.8,0c0,0,0,0,0,0
		C51.7,125.1,51.7,124.3,52.2,123.8z"/>
	<path d="M86.5,93.3L83,89.7c0,0-0.1-0.1-0.1-0.1c-0.2-0.1-0.5,0-0.6,0.2c0,0,0,0,0,0l-2.2,4.3l-16.2,16.2l2.8,2.8L86.5,93.3z"/>
	<path d="M44.4,3.7c-0.2,0.1-0.4,0.3-0.7,0.5c-0.2,0.2-0.4,0.3-0.6,0.5l-0.3,0.3c-0.1,0.1-0.2,0.2-0.2,0.3c-0.3,0.3-0.5,0.7-0.7,1.1
		c-0.1,0.2-0.1,0.3-0.2,0.5s-0.1,0.3-0.1,0.4l-0.1,0.3l0.2-0.3c0.1-0.1,0.1-0.2,0.2-0.3c0.1-0.1,0.2-0.3,0.3-0.4
		c0.1-0.1,0.3-0.3,0.4-0.4C42.8,6.1,43,6,43.2,5.9c0.1-0.1,0.2-0.1,0.3-0.2l0.3-0.1c0.2-0.1,0.4-0.2,0.6-0.2
		c0.2-0.1,0.4-0.1,0.6-0.2c0.2,0,0.4-0.1,0.6-0.1c0-0.8,0.1-1.5,0.4-2.3c-0.3,0.1-0.6,0.3-0.9,0.4C44.8,3.4,44.6,3.5,44.4,3.7z"/>
	<path d="M71.6,0h-9.4l-2.8,2.8c-0.5,0.6-1.3,0.6-1.9,0.2s-0.6-1.3-0.2-1.9c0-0.1,0.1-0.1,0.2-0.2l0,0l1-1H57l-0.2,0.2
		c-0.5,0.5-1.3,0.5-1.8,0c0,0,0,0,0,0c-0.1-0.1-0.1-0.1-0.2-0.2H47l2.4,2.4c-3,3,0.7,5.7,0.7,5.7l0,0c1.5-0.4,3.2-0.5,4.8-0.2
		c3.1,0.5,5.8,2.5,7,5.4c0.5-0.5,1.1-0.8,1.8-0.9c2.6,0.3,5.2-0.6,7.1-2.4c2.8-2.6,3.1-6.9,0.8-9.9L71.6,0z M70.2,9.3
		c-2.1,2.1-5.6,2.2-7.7,0c0,0,0,0,0,0l0,0c-1.5-1.5-0.8-2.6,0.6-3.9l0.5,0.3c0.2,0.1,0.4,0.2,0.7,0.4L65,6.4
		c0.2,0.1,0.5,0.2,0.8,0.2l0.4,0.1l0.4,0.1c0.2,0,0.5,0,0.7,0c0.2,0,0.4,0,0.6,0c0.2,0,0.4-0.1,0.5-0.1l0.4-0.1l0.3-0.1h-0.3h-0.4
		c-0.2,0-0.3,0-0.5-0.1c-0.2,0-0.4-0.1-0.5-0.2C67.1,6.2,67,6.1,66.8,6l-0.3-0.2l-0.3-0.2c-0.2-0.1-0.3-0.3-0.5-0.4
		s-0.3-0.3-0.5-0.4s-0.3-0.3-0.4-0.5L64.6,4l0.1-0.1c2.1-2.2,3.3-4.4,5.5-2.3C72.3,3.7,72.3,7.2,70.2,9.3z"/>
	<path d="M60.1,16.5c0-0.1,0-0.2,0-0.2c-0.9-3.3-2.9-5.3-5.7-5.8c-2.1-0.3-4.3,0.1-6.1,1.3l0,0c-1.5,7.4,3.9,20.8,10.7,26.7
		l10.8-10.8C69.8,27.7,60,21.8,60.1,16.5z M62,31c-0.6,0.9-1.9,1.1-2.8,0.5s-1.1-1.9-0.5-2.8c0.1-0.2,0.3-0.4,0.5-0.5l0,0
		c0.8-0.8,2-0.8,2.8,0l0,0C62.7,29,62.7,30.2,62,31z"/>
</g>
</svg>
