<?xml version="1.0" standalone="no"?>
<!DOCTYPE svg PUBLIC "-//W3C//DTD SVG 20010904//EN"
 "http://www.w3.org/TR/2001/REC-SVG-20010904/DTD/svg10.dtd">
<svg version="1.0" xmlns="http://www.w3.org/2000/svg"
 width="900.000000pt" height="460.000000pt" viewBox="0 0 900.000000 460.000000"
 preserveAspectRatio="xMidYMid meet">
<metadata>
Created by potrace 1.16, written by Peter Selinger 2001-2019
</metadata>
<g transform="translate(0.000000,460.000000) scale(0.100000,-0.100000)"
fill="#000000" stroke="none">
<path d="M3438 3934 c-9 -20 -25 -31 -55 -39 -39 -9 -101 -65 -72 -65 7 0 10
-10 6 -28 -4 -19 1 -38 13 -57 10 -16 16 -38 14 -53 -4 -22 -3 -24 11 -12 14
12 48 10 87 -5 13 -5 21 0 27 16 5 13 10 19 10 12 1 -8 8 -10 18 -6 15 6 16 5
3 -9 -8 -9 -18 -14 -22 -11 -5 2 -8 -1 -8 -6 0 -15 -57 -14 -62 1 -3 9 -6 9
-11 1 -7 -11 30 -24 173 -63 76 -20 111 -32 107 -36 -2 -3 -16 0 -31 6 -33 12
-62 -1 -71 -32 -4 -13 -17 -33 -28 -45 -11 -13 -18 -23 -14 -23 3 0 -12 -36
-33 -79 -22 -44 -40 -83 -40 -87 0 -4 -29 -73 -64 -153 -36 -80 -68 -158 -71
-173 -4 -16 -11 -25 -16 -22 -5 3 -9 -2 -9 -10 0 -9 -5 -16 -10 -16 -6 0 -8
-11 -4 -26 5 -19 4 -25 -5 -20 -11 7 -16 -17 -12 -62 1 -14 -2 -21 -8 -18 -6
4 -8 40 -5 89 3 45 5 101 6 125 1 23 6 42 10 42 4 0 6 13 4 30 -2 16 1 27 5
24 5 -3 9 4 9 16 0 12 7 35 16 51 8 17 13 33 10 37 -3 3 -6 1 -6 -4 0 -6 -7
-19 -16 -30 -15 -18 -15 -18 -9 11 10 45 56 120 65 105 5 -8 16 -1 34 22 14
19 26 38 26 43 0 6 -9 -4 -47 -54 -2 -2 -6 -1 -9 2 -4 4 15 32 41 62 26 31 50
54 53 51 3 -3 -3 -16 -14 -28 -16 -20 -15 -20 9 2 16 13 23 26 17 28 -14 5 7
32 24 32 6 0 4 -5 -4 -11 -13 -9 -13 -10 0 -6 8 2 14 10 12 16 -1 6 9 15 22
20 25 10 63 88 49 101 -8 8 -117 43 -162 53 -17 4 -33 -4 -64 -32 -22 -21 -37
-42 -34 -48 8 -13 76 -11 80 2 3 16 -42 18 -61 3 -16 -12 -16 -11 -2 6 29 37
69 55 103 45 17 -5 35 -13 41 -19 5 -5 28 -11 50 -11 31 -2 34 -3 13 -6 -15
-2 -25 -9 -22 -14 9 -13 -27 1 -50 21 -23 19 -69 25 -59 8 5 -8 1 -9 -11 -4
-15 6 -16 4 -4 -10 9 -10 22 -14 41 -10 20 4 30 1 37 -13 6 -10 7 -22 3 -26
-4 -5 -1 -5 6 -1 7 4 10 12 7 17 -3 5 1 6 9 3 8 -3 24 -1 35 5 17 10 20 9 15
-4 -4 -8 -10 -15 -16 -15 -5 0 -8 -8 -6 -17 2 -12 -7 -19 -32 -24 -40 -9 -50
-5 -50 20 0 18 -18 41 -33 41 -5 0 -3 -8 4 -17 13 -17 13 -17 -5 -3 -18 14
-19 13 -13 -2 5 -15 1 -18 -21 -15 -15 1 -28 -2 -30 -8 -4 -13 -45 -34 -55
-28 -4 2 -5 9 -1 14 3 5 10 6 16 3 7 -5 8 -2 3 6 -6 10 -12 8 -27 -10 -29 -36
-30 -18 -2 26 l25 39 -25 -30 c-61 -73 -126 -121 -216 -163 l-43 -19 32 -5
c25 -4 31 -2 26 10 -10 27 20 -5 41 -43 10 -19 25 -35 34 -35 13 0 13 1 0 10
-12 8 -11 10 6 10 17 0 21 -6 21 -27 0 -16 -2 -22 -4 -15 -5 14 -33 17 -33 3
0 -9 30 -25 42 -23 4 1 5 -4 2 -11 -2 -7 4 -22 16 -32 11 -10 20 -16 20 -14 0
2 -6 27 -14 56 -8 28 -11 54 -8 57 3 3 0 6 -7 6 -7 0 -9 5 -6 10 4 6 -6 10
-22 10 -37 0 -57 14 -50 35 4 9 3 14 -3 10 -6 -3 -10 -2 -10 3 0 10 109 86
125 88 6 0 18 4 27 8 20 9 41 -1 33 -15 -4 -5 -1 -9 5 -9 6 0 4 -10 -6 -25 -9
-14 -12 -25 -6 -25 6 0 14 5 17 10 3 6 12 10 18 9 9 0 8 -2 -1 -6 -6 -2 -10
-8 -7 -13 6 -10 82 17 107 38 9 8 14 20 12 27 -7 16 15 30 27 18 10 -10 -79
-100 -94 -95 -5 1 -20 -4 -33 -13 -22 -14 -23 -14 -17 2 6 17 5 17 -13 0 -10
-10 -28 -25 -39 -33 -18 -14 -18 -15 -2 -10 10 3 27 6 37 6 10 0 26 7 34 16 9
8 22 14 29 11 7 -2 -3 -13 -23 -25 -19 -12 -29 -22 -22 -22 7 0 10 -4 7 -10
-3 -5 -17 -10 -31 -10 -13 0 -24 -4 -24 -10 0 -5 6 -7 14 -4 20 8 28 -11 11
-26 -17 -14 -50 -10 -51 8 -1 6 -2 17 -3 24 -1 8 -4 9 -11 2 -7 -7 -6 -24 4
-51 20 -57 31 -133 19 -133 -6 0 -9 -12 -7 -27 l4 -28 -9 27 c-14 42 -69 117
-98 131 -17 9 -22 17 -14 21 7 5 34 -15 68 -51 l57 -58 -33 48 c-18 26 -43 54
-57 63 -27 18 -54 13 -54 -11 0 -8 -6 -15 -14 -15 -17 0 -38 25 -29 34 4 4 -1
4 -12 0 -18 -7 -18 -6 -6 9 11 15 10 18 -10 25 -39 15 -137 23 -119 11 12 -8
9 -10 -12 -6 -15 2 -25 1 -23 -4 6 -9 -31 -22 -43 -15 -5 3 -7 -9 -5 -27 l4
-32 -15 32 c-12 26 -20 32 -45 31 -17 -1 -34 2 -38 5 -3 4 6 7 20 7 15 0 27 5
27 10 0 14 -9 12 -55 -10 -36 -17 -37 -19 -15 -21 14 0 1 -6 -30 -13 -30 -7
-66 -16 -79 -20 -18 -6 -22 -5 -16 4 5 9 4 11 -4 6 -6 -4 -9 -11 -6 -16 3 -4
-2 -13 -10 -20 -10 -9 -15 -9 -15 -1 0 6 -7 11 -15 11 -25 0 -17 15 15 31 l30
14 -47 1 c-29 1 -40 -1 -29 -5 18 -7 18 -8 2 -14 -24 -10 -38 -9 -32 2 9 13
-15 19 -44 10 l-25 -7 25 -2 c16 -1 3 -8 -37 -18 -34 -10 -65 -20 -69 -24 -4
-5 -16 -8 -26 -8 -10 0 -18 -5 -18 -11 0 -6 6 -9 12 -7 14 5 38 -15 38 -30 0
-11 39 -4 58 11 6 5 12 17 12 26 -1 14 -2 14 -14 -1 -7 -10 -21 -18 -31 -18
-16 0 -15 3 5 20 13 11 29 20 37 20 7 0 13 5 13 10 0 15 56 12 68 -3 6 -7 7
-18 3 -26 -5 -7 -6 -23 -4 -35 4 -17 3 -18 -6 -6 -7 9 -11 10 -11 3 0 -6 -5
-24 -11 -40 -10 -26 -12 -27 -19 -8 -7 17 -9 17 -9 3 -1 -10 -9 -18 -18 -18
-15 0 -16 -2 -3 -10 13 -8 12 -10 -2 -10 -10 0 -18 5 -18 11 0 8 -5 8 -15 -1
-15 -12 -20 -4 -16 23 0 4 -4 7 -10 7 -7 0 -18 8 -25 18 -12 15 -13 14 -14
-10 0 -33 -18 -36 -48 -8 -17 16 -22 17 -22 6 0 -8 5 -18 10 -21 19 -11 10
-32 -12 -31 -27 1 -52 22 -43 36 3 5 -1 10 -10 10 -10 0 -13 -5 -9 -12 5 -7 2
-9 -9 -5 -9 3 -27 -3 -43 -15 l-27 -21 12 21 c10 18 9 22 -4 22 -20 0 -19 14
2 31 15 12 16 12 11 -3 -4 -10 -1 -19 8 -22 9 -3 12 -2 9 5 -4 6 0 9 11 7 10
-2 19 2 19 7 1 17 16 36 25 30 5 -3 12 0 15 6 13 19 -3 21 -31 2 -16 -10 -36
-19 -46 -19 -10 -1 -22 -2 -27 -3 -14 -2 -22 -32 -12 -45 6 -7 6 -17 1 -26 -8
-13 -11 -13 -22 -1 -11 11 -11 13 0 7 10 -6 11 -1 6 18 -3 15 -2 32 4 39 5 6
8 20 7 29 -2 10 1 20 6 24 5 3 9 -2 9 -11 0 -12 5 -15 16 -11 9 3 25 6 35 6
11 0 18 4 15 9 -3 5 -16 7 -29 5 -12 -2 -16 -2 -9 2 17 8 15 27 -3 21 -8 -4
-17 -2 -20 2 -11 19 27 19 42 1 10 -11 29 -20 43 -19 14 0 19 3 13 6 -7 2 -13
11 -13 19 0 9 4 13 8 10 5 -3 9 0 9 7 0 7 -11 13 -24 13 -12 1 -21 -2 -18 -6
3 -5 -4 -6 -15 -3 -11 3 -20 9 -20 14 0 10 34 13 86 10 18 -1 35 2 39 8 10 18
-121 14 -138 -4 -8 -8 -18 -11 -21 -7 -4 3 -4 -1 -1 -10 4 -9 2 -19 -3 -22 -5
-3 -12 4 -15 15 -7 24 -22 18 -30 -11 -3 -11 -1 -18 4 -14 10 6 12 -7 3 -30
-3 -9 -10 -14 -14 -11 -13 8 -19 -8 -24 -67 -5 -66 -20 -100 -41 -92 -8 4 -15
1 -15 -6 0 -6 5 -8 12 -4 8 5 9 -2 5 -25 -5 -21 -3 -30 4 -25 6 3 -6 -17 -26
-45 -20 -28 -41 -53 -46 -57 -17 -10 -9 12 16 46 30 40 29 37 10 37 -8 0 -13
-2 -11 -5 3 -2 -4 -13 -15 -25 -10 -11 -19 -35 -19 -52 0 -35 25 -76 37 -60
12 16 81 45 107 45 15 0 27 10 39 33 9 19 16 25 16 15 1 -9 -3 -20 -9 -23 -20
-12 -9 -23 30 -30 39 -7 127 -61 116 -72 -3 -3 -19 6 -36 20 -17 15 -47 31
-67 36 -38 11 -60 6 -27 -5 88 -30 148 -82 175 -150 31 -81 3 -206 -57 -253
-25 -19 -26 -24 -14 -46 7 -13 29 -39 49 -57 21 -19 26 -22 13 -7 l-23 26 58
22 c32 12 79 25 105 28 55 7 147 -5 129 -17 -9 -5 -10 -10 -2 -14 17 -11 13
-29 -4 -22 -8 3 -15 1 -15 -5 0 -6 -4 -7 -10 -4 -5 3 -10 1 -10 -5 0 -7 -6
-10 -13 -7 -7 3 -20 0 -28 -7 -12 -8 8 -11 87 -11 69 0 107 -4 115 -12 7 -7
24 -13 39 -13 20 0 30 -9 46 -42 28 -55 46 -124 40 -146 -17 -54 -21 -241 -7
-307 6 -27 13 -61 15 -74 3 -14 9 -27 13 -30 5 -3 14 -18 20 -33 7 -15 28 -44
47 -66 20 -21 33 -42 29 -46 -4 -4 3 -9 15 -13 12 -3 22 -9 22 -14 0 -5 8 -9
19 -9 10 0 24 -7 31 -15 7 -8 21 -15 31 -15 10 0 20 -4 24 -9 3 -5 31 -15 63
-22 31 -7 65 -16 76 -22 12 -6 16 -6 12 1 -3 6 27 8 82 6 l87 -3 -74 10 c-154
19 -310 72 -369 126 -20 18 -38 33 -41 33 -15 1 -41 53 -47 92 l-6 43 22 -41
c26 -52 104 -132 136 -140 13 -3 24 -10 24 -14 0 -19 123 -55 220 -66 l35 -3
-35 9 c-19 5 -44 11 -55 14 -29 6 -56 16 -115 40 -97 41 -184 128 -196 196 -4
19 -11 40 -16 47 -5 6 -10 53 -11 105 -2 85 0 98 27 149 33 64 84 122 127 144
47 25 33 26 -20 2 -28 -12 -55 -31 -61 -43 -6 -11 -25 -28 -41 -38 -16 -9 -29
-25 -29 -35 0 -9 -7 -26 -15 -37 -14 -17 -14 -14 -10 41 2 33 10 64 17 70 7 5
20 19 28 29 14 18 14 18 -6 6 -23 -14 -54 -8 -54 11 0 8 4 8 15 -1 13 -10 19
-10 33 4 10 9 21 14 24 11 3 -3 10 1 16 8 9 11 8 14 -6 14 -9 0 -23 -4 -29
-10 -9 -7 -13 -5 -13 6 0 8 -7 17 -15 21 -13 5 -13 2 1 -19 9 -14 13 -25 10
-25 -8 0 -46 40 -104 108 -84 100 -248 148 -374 109 -27 -8 -48 -14 -48 -12 0
8 65 35 85 35 22 0 23 3 28 55 1 23 -2 30 -15 29 -9 -1 -15 4 -12 10 2 6 -12
21 -32 34 -27 17 -33 26 -25 36 7 9 7 22 -1 43 -10 26 -9 34 5 48 32 32 39 53
20 64 -17 10 -17 10 0 11 9 0 17 4 17 10 0 5 18 19 40 30 39 20 46 33 34 63
-5 13 -11 11 -41 -9 -20 -13 -42 -24 -49 -24 -7 0 -19 -3 -27 -6 -11 -4 -15 0
-13 13 2 10 11 19 22 21 10 2 33 11 51 20 28 14 35 14 57 2 15 -7 26 -22 26
-33 0 -11 3 -18 6 -14 12 12 -6 55 -26 60 -21 5 -29 50 -10 62 5 3 6 13 3 22
-4 10 -2 14 5 9 6 -3 14 -2 17 4 4 7 -3 9 -22 6 -15 -2 -32 -5 -36 -5 -5 -1
-5 -5 -2 -11 8 -13 3 -13 -30 0 -24 9 -26 8 -23 -12 2 -11 -2 -23 -8 -25 -17
-6 -14 48 3 54 8 3 24 6 36 7 16 1 21 7 19 20 -2 10 6 25 17 33 12 8 21 21 21
29 0 16 16 19 24 5 4 -5 -7 -21 -24 -34 -38 -32 -38 -39 0 -35 19 2 43 18 65
41 19 20 35 35 35 32 0 -3 9 -1 20 5 11 6 20 16 20 22 0 9 -3 9 -12 0 -7 -7
-17 -12 -22 -12 -11 1 24 24 35 25 4 0 20 15 37 33 33 35 32 35 120 15 17 -4
22 -1 22 13 0 26 -11 40 -37 48 -28 9 -44 0 -36 -20 3 -9 12 -12 23 -9 10 3
21 1 24 -4 11 -18 -43 -6 -56 12 -13 17 -17 16 -76 -14 -34 -18 -62 -36 -62
-41 0 -4 -5 -8 -11 -8 -8 0 -9 4 0 13 6 8 8 17 5 20 -4 3 7 9 22 13 16 4 43
17 59 29 50 37 117 51 136 29 6 -8 16 -14 22 -14 6 0 18 -7 28 -16 17 -15 81
-25 106 -16 9 3 9 7 -2 18 -16 16 -29 19 -20 4 3 -6 -4 -10 -17 -10 -21 1 -21
2 -5 11 9 6 14 15 11 21 -4 7 -2 8 4 4 7 -4 12 -2 12 3 0 6 -7 11 -17 11 -9 0
-14 2 -11 5 7 7 41 15 96 22 34 5 42 3 42 -11 0 -9 7 -16 15 -16 11 0 10 -5
-6 -21 -11 -11 -18 -27 -15 -36 3 -8 6 -22 6 -32 0 -9 7 -26 15 -37 15 -19 15
-19 30 0 8 11 17 17 21 14 7 -8 44 28 45 45 0 6 6 0 12 -14 7 -15 31 -47 55
-72 64 -70 51 -73 -20 -4 -21 20 -27 21 -51 3 -15 -12 -16 -14 -2 -20 8 -3 14
-9 13 -13 -2 -4 18 -28 45 -52 44 -41 60 -71 37 -71 -6 0 -27 17 -48 38 -38
38 -100 77 -116 73 -5 -1 -6 5 -3 14 5 13 -5 21 -16 13 -2 -2 -11 4 -20 13 -9
9 -26 15 -39 12 -13 -2 -50 8 -83 23 -51 22 -57 28 -40 35 11 4 15 8 8 8 -21
2 -43 -11 -43 -25 0 -8 -5 -14 -11 -14 -5 0 -7 5 -4 10 7 11 -8 14 -18 4 -4
-4 13 -19 36 -34 33 -21 46 -24 59 -16 13 8 21 7 30 -2 9 -9 8 -12 -5 -12 -21
0 -22 -16 -1 -24 30 -12 56 -7 50 9 -3 8 -1 15 5 15 6 0 13 -9 16 -20 3 -11
12 -20 20 -20 11 0 11 4 3 20 -16 29 3 25 37 -8 15 -15 43 -38 61 -51 18 -13
31 -26 27 -29 -3 -3 -11 0 -17 6 -15 15 -32 16 -23 2 3 -5 2 -17 -3 -25 -7
-13 -10 -12 -19 7 -6 13 -14 31 -17 41 -3 9 -15 17 -26 17 -12 0 -18 -4 -15
-10 3 -6 -1 -7 -9 -4 -23 9 -20 -9 3 -23 15 -10 21 -10 25 0 3 7 3 2 0 -11 -4
-15 0 -24 10 -28 12 -4 16 -20 16 -55 0 -44 -3 -51 -25 -59 -14 -5 -29 -9 -33
-9 -47 7 -50 -15 -4 -26 16 -3 29 -12 29 -20 0 -20 -7 -19 -24 3 -12 13 -12
11 0 -9 9 -15 20 -42 25 -60 10 -33 10 -32 11 19 1 29 4 51 9 49 4 -3 8 5 8
18 1 13 9 38 18 56 13 25 13 34 4 40 -9 6 -8 12 5 27 9 10 17 24 17 30 0 7 9
12 20 12 11 0 20 -4 20 -9 0 -5 14 -14 30 -21 17 -7 28 -15 26 -18 -10 -9 24
-33 36 -26 10 6 11 5 1 -8 -7 -8 -9 -19 -5 -23 4 -5 2 -6 -3 -2 -14 7 -49 -19
-36 -28 17 -10 13 -42 -5 -49 -9 -3 -20 -4 -25 0 -13 8 -11 -10 3 -24 9 -9 9
-12 0 -12 -7 0 -12 -5 -12 -11 0 -5 3 -8 8 -6 4 3 13 -1 19 -9 8 -8 9 -15 3
-19 -6 -3 -10 -3 -10 2 0 4 -20 8 -45 8 -30 0 -45 -4 -45 -13 0 -7 -4 -10 -10
-7 -5 3 -10 -1 -10 -9 0 -10 9 -16 24 -16 14 0 37 -5 52 -10 21 -8 29 -8 36 2
6 10 8 9 8 -3 0 -8 -15 -33 -34 -54 -37 -41 -39 -51 -18 -73 15 -17 12 -34 -9
-41 -11 -3 -12 -1 -2 11 15 17 8 28 -18 28 -9 0 -19 7 -23 15 -3 9 0 15 9 15
8 0 15 4 15 9 0 5 -9 7 -21 4 -12 -4 -18 -11 -15 -20 4 -8 9 -25 12 -38 3 -13
13 -26 21 -29 9 -4 13 -13 9 -22 -11 -28 15 -3 44 44 16 26 30 40 30 32 0 -13
1 -13 10 0 5 8 10 11 10 6 0 -5 -19 -34 -42 -65 -27 -36 -33 -49 -17 -36 13
11 27 25 32 32 16 25 39 43 55 43 12 0 9 -7 -13 -26 -18 -14 -22 -21 -10 -16
22 10 46 5 57 -12 6 -8 8 -7 8 1 0 6 -4 15 -10 18 -5 3 -10 12 -10 18 0 7 4 6
10 -3 8 -13 11 -12 24 5 20 26 20 16 0 -24 -8 -17 -13 -37 -11 -44 3 -7 9 -2
15 13 6 14 11 19 11 11 1 -7 7 -11 15 -8 11 4 14 -1 12 -19 -4 -33 -11 -38
-35 -24 -14 7 -21 7 -21 0 0 -5 5 -10 11 -10 5 0 8 -4 5 -9 -3 -4 5 -6 17 -4
12 3 30 17 38 32 15 26 19 27 100 28 46 0 69 -2 50 -4 -26 -3 -31 -7 -20 -14
10 -6 7 -9 -13 -9 -15 0 -30 -5 -34 -11 -5 -8 0 -10 17 -6 27 7 74 -12 74 -30
0 -20 14 -26 30 -13 14 12 14 8 -1 -29 -14 -36 -15 -44 -3 -52 22 -14 36 -10
16 5 -12 9 -14 16 -8 21 6 3 11 14 11 24 0 9 7 26 16 37 15 18 15 18 5 -3 -14
-29 -14 -36 2 -30 7 3 19 -4 26 -15 12 -19 11 -20 -13 -16 -20 4 -24 2 -16 -7
15 -18 68 -11 91 14 11 12 25 19 31 15 6 -4 14 -1 18 6 5 8 9 8 13 -4 4 -9 3
-15 -1 -15 -21 4 -46 -2 -37 -9 6 -4 11 -18 13 -32 2 -20 1 -22 -8 -10 -8 10
-10 11 -8 2 6 -21 23 -14 23 10 0 12 6 23 12 25 8 3 9 -7 3 -33 -8 -32 -7 -35
6 -22 8 8 17 34 19 57 2 24 7 46 10 50 4 3 6 -3 5 -14 -1 -11 -1 -24 0 -30 1
-5 3 -27 4 -47 0 -21 3 -38 6 -37 3 0 17 -4 32 -10 18 -7 29 -7 33 0 4 5 11 7
16 3 6 -3 19 2 29 11 17 15 19 15 29 -2 9 -16 10 -16 11 -1 0 12 5 15 17 11
10 -4 12 -8 6 -10 -7 -3 -9 -11 -6 -20 4 -9 2 -14 -3 -10 -6 3 -10 -11 -9 -34
0 -34 2 -37 13 -22 6 9 13 25 13 35 3 33 4 37 16 49 8 8 16 6 32 -10 12 -12
26 -21 31 -21 6 0 10 -6 10 -12 0 -10 2 -10 9 0 6 11 11 10 24 -3 9 -9 21 -13
27 -10 5 3 10 2 10 -3 0 -6 7 -13 16 -16 8 -3 12 -2 9 4 -8 12 -3 12 29 0 20
-7 26 -6 26 4 0 7 12 16 28 19 17 4 36 19 52 45 l25 40 45 -14 c55 -17 90 -18
90 -2 0 6 3 8 6 5 4 -4 1 -13 -6 -22 -10 -12 -9 -15 5 -15 14 0 16 6 11 32
-12 60 42 178 82 178 15 0 13 -27 -4 -75 -7 -20 -7 -20 9 0 8 11 13 23 11 27
-3 5 2 8 10 8 18 0 20 11 6 28 -7 9 -7 9 2 2 7 -5 20 -10 30 -10 12 0 18 -8
18 -22 1 -23 1 -23 16 2 8 14 13 17 10 8 -5 -19 20 -33 30 -16 4 7 3 8 -4 4
-8 -5 -10 -1 -6 9 5 12 10 13 17 6 16 -16 17 -39 1 -45 -8 -3 -14 -10 -14 -16
0 -6 10 -4 23 5 13 8 27 12 32 8 4 -5 5 0 2 10 -6 17 -4 16 22 -2 29 -21 29
-21 24 -1 -3 11 -10 17 -17 13 -8 -4 -8 -3 0 6 6 6 19 9 28 5 13 -5 14 -9 6
-14 -8 -5 -1 -10 19 -15 17 -4 28 -11 25 -17 -3 -5 -14 -8 -23 -5 -9 2 -22 -2
-29 -9 -19 -21 18 -23 58 -2 19 10 44 18 55 17 19 0 19 -1 1 -8 -16 -6 -17 -9
-4 -13 8 -4 19 -3 25 0 16 11 31 45 28 65 -2 9 1 14 7 11 5 -4 7 -23 4 -43 -3
-22 -2 -29 2 -17 6 13 19 19 39 20 17 1 29 -2 27 -6 -6 -9 23 -24 66 -33 19
-4 49 -13 65 -20 55 -25 108 -35 121 -24 9 7 21 6 41 -5 15 -8 22 -15 15 -16
-7 0 -22 5 -33 10 -10 6 -19 7 -19 2 0 -5 26 -17 58 -26 31 -10 79 -27 105
-38 27 -10 51 -17 54 -14 3 3 -11 12 -31 20 -20 8 -36 17 -36 19 0 8 50 -5 56
-14 3 -5 16 -9 29 -9 13 0 27 -5 31 -11 4 -8 0 -9 -15 -4 -12 4 -21 2 -21 -4
0 -10 11 -13 58 -15 9 -1 19 -3 22 -6 15 -15 52 -30 60 -25 6 4 10 2 10 -3 0
-5 18 -12 41 -16 23 -4 54 -13 70 -21 15 -8 41 -15 56 -15 15 0 42 -9 60 -19
17 -11 44 -21 60 -23 15 -2 43 -12 61 -22 18 -9 39 -15 45 -13 7 2 31 -2 53
-9 43 -13 50 -7 31 23 -6 9 -3 11 7 7 8 -3 24 0 37 6 19 11 21 10 16 -4 -4
-11 -3 -15 4 -10 6 3 9 14 6 24 -3 14 -1 17 11 13 11 -5 14 -2 9 11 -4 9 -3
15 2 11 5 -3 12 -1 16 5 3 5 -1 10 -9 10 -9 0 -13 6 -10 14 3 7 -6 23 -20 33
-14 11 -22 24 -18 28 4 5 1 4 -7 0 -12 -7 -11 -11 7 -23 30 -19 28 -57 -3 -78
-23 -15 -51 -11 -40 6 7 11 -24 22 -37 13 -7 -4 -8 -1 -4 6 5 7 13 10 20 8 6
-2 25 2 41 9 17 7 24 13 17 14 -7 0 -22 -5 -33 -10 -13 -8 -19 -7 -19 0 0 6
-11 3 -23 -7 -25 -18 -20 -32 13 -46 8 -3 0 -6 -18 -6 -18 -1 -31 3 -27 8 3 5
-4 13 -16 16 -17 6 -19 9 -8 16 8 5 10 9 4 10 -43 4 -74 27 -75 56 0 6 -4 14
-9 17 -4 3 -6 -6 -3 -19 2 -15 0 -25 -7 -25 -6 0 -11 8 -11 18 0 11 -3 13 -8
5 -7 -12 -21 -9 -114 23 -10 4 -18 11 -18 18 0 6 -4 5 -9 -3 -6 -8 -14 -10
-22 -5 -8 5 -20 9 -27 10 -8 2 -19 10 -26 20 -9 12 -15 14 -20 6 -4 -7 -12
-12 -17 -12 -6 0 -8 4 -5 9 6 9 -40 22 -81 23 -13 0 -20 5 -17 10 4 6 1 8 -7
4 -8 -3 -23 -9 -33 -13 -15 -5 -1 -13 54 -34 40 -16 77 -26 83 -22 6 3 7 1 4
-4 -9 -15 10 -21 66 -19 35 1 44 -2 33 -9 -13 -10 23 -26 133 -61 8 -2 12 -7
9 -9 -5 -6 -272 81 -448 145 -58 21 -138 48 -178 60 -45 13 -70 25 -66 31 4 7
-2 9 -17 5 -13 -3 -19 -3 -12 0 13 6 6 34 -9 34 -5 0 -7 -4 -3 -9 3 -5 0 -13
-6 -17 -8 -4 -9 -3 -5 4 4 7 2 12 -5 12 -6 0 -1 9 12 21 13 11 19 18 12 15 -6
-4 -13 -1 -15 5 -3 8 -9 6 -20 -5 -21 -20 -28 -20 -28 -1 0 8 6 15 13 16 6 0
-4 6 -23 13 -21 7 -40 9 -47 4 -8 -7 -10 -3 -6 12 3 12 15 26 27 31 19 8 18 9
-6 6 -32 -5 -38 9 -9 18 11 3 67 -10 126 -29 81 -26 113 -32 131 -26 24 9 35
25 12 18 -6 -2 -26 12 -44 31 -19 20 -34 30 -34 22 0 -11 -3 -11 -17 0 -14 12
-16 12 -8 0 6 -11 4 -13 -9 -8 -10 4 -22 7 -27 7 -6 0 -8 4 -4 9 3 5 2 12 -3
15 -4 2 -9 -5 -9 -16 -2 -27 -11 -34 -25 -20 -9 9 -9 12 0 12 22 0 12 20 -10
21 -20 1 -21 2 -4 6 16 4 11 9 -22 24 -23 11 -42 25 -42 32 0 8 -4 6 -10 -3
-7 -12 -13 -13 -28 -3 -17 10 -21 6 -36 -40 -37 -109 -64 -142 -88 -109 -7 9
-74 37 -148 60 -205 66 -220 72 -220 90 0 9 17 66 38 127 35 103 39 110 67
115 36 6 106 -21 78 -31 -10 -3 35 -22 121 -50 75 -25 130 -40 122 -34 -8 7
-60 26 -116 44 -55 18 -100 36 -100 41 0 8 53 -5 168 -42 35 -12 73 -22 85
-23 12 -1 28 -3 34 -4 8 -1 11 -11 7 -29 -5 -27 -5 -27 113 -60 187 -52 881
-282 930 -307 24 -13 51 -21 59 -18 9 3 14 -1 14 -12 0 -9 5 -13 10 -10 6 3
25 2 43 -4 17 -6 56 -18 85 -27 42 -13 52 -20 47 -33 -5 -13 -4 -14 6 -3 7 6
31 12 52 12 l40 0 -24 19 c-13 10 -31 21 -39 24 -8 3 0 4 19 4 25 -2 40 -10
58 -34 19 -25 35 -34 70 -39 25 -4 58 -13 72 -20 14 -8 32 -14 40 -14 21 0
146 -44 149 -52 2 -5 12 -8 23 -8 10 0 19 -4 19 -10 0 -5 7 -7 15 -4 8 4 15 2
15 -3 0 -12 118 -47 149 -45 14 1 35 -8 47 -19 14 -13 30 -19 39 -15 9 3 14 2
11 -3 -5 -8 85 -36 146 -46 16 -2 60 -16 99 -30 38 -14 79 -25 89 -25 10 0 25
-6 32 -12 7 -7 18 -14 23 -15 32 -4 232 -67 243 -76 6 -5 12 -7 12 -4 0 3 24
-3 53 -13 179 -62 279 -72 292 -30 4 11 11 20 16 20 6 0 7 -6 2 -12 -24 -39 7
-73 73 -82 27 -3 50 -9 52 -14 5 -15 55 -1 89 24 17 13 37 40 43 59 6 19 16
35 21 35 6 0 8 4 5 9 -3 4 3 19 14 31 11 13 20 27 20 31 0 4 3 16 6 26 5 17 5
17 -6 1 -6 -10 -16 -18 -22 -18 -7 0 -7 4 1 14 9 11 6 13 -14 11 -14 -2 -25 1
-25 7 0 6 6 8 13 5 7 -3 13 3 13 13 0 15 -3 16 -21 5 -24 -16 -85 -22 -103
-11 -6 4 -12 19 -12 34 -1 26 -1 26 -13 7 -22 -37 -37 -28 -38 23 -2 33 -3 38
-6 17 -5 -31 -23 -60 -23 -36 0 7 -5 9 -10 6 -6 -4 -8 -11 -5 -16 3 -5 -1 -6
-9 -3 -9 3 -16 10 -16 15 0 5 -3 8 -7 7 -5 -1 -24 4 -43 11 -19 8 -47 13 -62
12 -20 -2 -28 2 -28 14 0 11 -5 15 -15 11 -8 -3 -15 -1 -15 5 0 5 -10 14 -22
19 -22 9 -22 9 -2 9 12 1 33 -8 48 -20 14 -11 26 -16 26 -10 0 15 -75 51 -107
51 l-28 0 38 -27 c20 -14 35 -28 33 -30 -2 -2 -23 1 -47 7 -52 13 -56 13 -89
5 -22 -6 -22 -5 4 9 16 9 36 14 43 12 7 -3 13 -1 13 4 0 19 -57 20 -110 1 -93
-32 -97 -32 -35 -1 33 16 49 27 37 24 -21 -5 -23 -3 -18 18 3 12 3 17 0 10 -3
-7 -15 -17 -26 -23 -11 -6 -18 -7 -15 -2 3 4 -1 13 -8 20 -10 9 -14 8 -18 -8
-3 -11 -9 -19 -14 -18 -24 4 -43 -2 -37 -12 4 -7 -3 -6 -17 2 l-24 13 33 7
c39 8 37 7 47 39 7 24 7 23 -17 -4 -32 -37 -71 -31 -86 13 -11 31 -5 42 28 54
10 4 8 6 -6 6 -13 1 -34 -13 -51 -34 -36 -42 -42 -43 -36 -7 4 26 4 26 -11 8
-15 -18 -16 -18 -16 -2 0 10 -5 16 -12 13 -7 -2 -12 -9 -11 -15 1 -5 -5 -9
-15 -7 -9 2 -24 4 -34 4 -47 2 21 85 85 102 30 8 30 8 -7 4 -31 -3 -51 -15
-88 -52 -43 -42 -53 -46 -49 -20 1 4 -5 10 -13 13 -9 3 -12 12 -8 22 5 15 4
15 -11 3 -14 -11 -15 -17 -5 -28 9 -11 9 -16 -3 -24 -21 -13 -25 -12 -69 20
-25 18 -36 32 -30 36 6 4 20 -1 31 -11 21 -19 24 -13 9 17 -13 24 2 55 31 64
11 4 18 9 15 12 -11 11 -76 -42 -70 -57 3 -8 2 -11 -2 -7 -4 4 -13 2 -21 -5
-7 -6 -17 -8 -20 -4 -4 4 -2 11 5 15 9 5 11 17 6 36 -6 23 -8 25 -16 11 -5 -9
-10 -31 -10 -49 l-1 -32 -14 30 c-10 21 -13 23 -9 8 3 -16 -1 -23 -11 -23 -8
0 -12 4 -8 9 8 14 -7 20 -30 11 -11 -4 -35 -1 -54 7 -19 8 -44 17 -55 19 -12
2 -34 7 -51 11 -16 4 -35 6 -42 5 -6 -2 -15 3 -19 9 -4 7 -3 10 2 6 5 -3 18 1
29 9 17 13 16 14 -18 14 -31 0 -40 5 -62 38 -30 46 -75 99 -75 90 0 -4 13 -22
29 -41 32 -36 48 -81 33 -91 -6 -3 -8 2 -6 11 3 10 -2 27 -10 38 -9 11 -16 15
-16 8 0 -6 5 -15 10 -18 19 -12 10 -25 -15 -23 -14 1 -25 6 -25 10 0 4 -13 8
-30 8 -22 0 -28 4 -24 15 8 20 -1 19 -25 -1 -11 -10 -17 -23 -14 -30 11 -30
-7 -12 -23 22 -11 22 -20 31 -24 24 -5 -9 -9 -9 -14 -1 -11 18 -26 13 -19 -6
6 -16 5 -16 -10 -4 -9 7 -25 10 -34 7 -17 -6 -17 -5 0 8 21 16 9 30 -13 15 -8
-5 -22 -9 -30 -9 -13 0 -13 1 0 10 12 8 11 10 -7 10 -13 0 -23 5 -23 12 0 9
-3 9 -11 1 -9 -9 -24 -1 -61 28 -27 21 -55 39 -61 39 -7 0 -3 -6 8 -12 28 -15
65 -50 65 -60 0 -5 -10 0 -22 11 -11 11 -25 18 -30 15 -4 -3 -8 0 -8 6 0 6 -5
8 -10 5 -6 -3 -22 2 -38 13 -42 30 -76 37 -177 41 -33 2 -54 5 -47 8 6 2 12
11 12 19 0 13 -14 18 -47 17 -6 0 -9 5 -7 11 3 7 -6 12 -18 13 -16 2 -19 0 -9
-6 9 -6 4 -14 -21 -32 -32 -22 -33 -22 -14 -1 11 12 20 34 21 48 0 20 -2 22
-10 11 -10 -14 -54 -13 -65 1 -3 4 -15 7 -27 6 -13 -1 -23 2 -23 7 0 11 -29
39 -41 39 -5 0 -9 -5 -9 -11 0 -5 4 -8 9 -4 5 3 12 1 15 -4 4 -5 2 -12 -3 -15
-5 -4 -12 -2 -16 4 -4 6 -11 7 -17 4 -7 -4 -8 -2 -4 4 4 7 -3 14 -19 18 -13 3
-23 10 -20 14 2 4 -10 7 -28 8 -75 2 -74 2 -47 17 21 12 22 14 6 15 -17 0 -18
2 -4 18 8 9 18 24 23 32 4 8 -6 -1 -23 -21 -27 -32 -82 -63 -66 -38 3 5 -2 9
-11 9 -10 0 -15 6 -12 13 3 8 0 14 -6 15 -7 0 -24 3 -39 5 -16 2 -28 0 -28 -5
0 -5 -16 3 -36 19 -27 20 -46 27 -73 24 -34 -2 -35 -2 -16 12 19 15 19 15 -7
10 -14 -3 -36 1 -49 8 -29 16 -71 20 -62 6 4 -6 1 -7 -6 -2 -7 4 -11 17 -9 30
4 18 1 21 -14 17 -22 -5 -23 -14 -3 -53 14 -27 19 -29 50 -23 41 7 71 -1 79
-23 6 -14 4 -14 -10 -2 -13 10 -18 11 -21 2 -2 -7 -12 -9 -20 -6 -14 6 -14 8
3 15 12 5 3 6 -23 2 -40 -5 -44 -4 -62 27 -11 18 -23 46 -26 61 -7 29 -20 37
-27 17 -3 -8 -14 -7 -35 5 -39 20 -43 20 -43 2 0 -8 -4 -17 -9 -20 -5 -4 -7 2
-5 11 4 14 -1 18 -20 19 -17 1 -24 -2 -20 -10 3 -6 -5 3 -20 19 -14 17 -28 38
-31 48 -4 9 -13 17 -21 17 -11 0 -6 -11 15 -37 17 -21 31 -44 31 -53 -1 -12
-3 -11 -11 3 -6 9 -14 15 -19 12 -5 -3 -18 8 -30 25 -12 17 -25 28 -30 25 -5
-3 -10 1 -13 7 -3 10 -7 10 -20 -1 -22 -18 -47 -8 -40 18 4 18 2 19 -31 11
-30 -7 -36 -5 -41 12 -5 13 -12 17 -26 13 -14 -5 -19 -2 -19 14 0 14 -5 19
-15 15 -8 -4 -15 -1 -15 7 0 7 -3 9 -7 6 -3 -4 -12 5 -19 19 -12 22 -11 34 11
97 31 87 31 101 3 115 -13 6 -213 73 -446 148 l-422 138 52 13 c60 16 80 29
28 19 -19 -4 -46 -6 -59 -6 -14 0 -28 -4 -31 -10 -4 -6 -27 -4 -64 7 l-59 17
54 17 c45 15 49 18 24 18 -16 0 -36 -3 -44 -8 -7 -5 -23 -6 -34 -3 -18 4 -14
8 18 18 38 13 37 13 -34 8 -50 -4 -71 -2 -66 5 3 6 18 11 33 12 26 0 27 1 5
11 -17 8 -28 7 -45 -4 -15 -10 -30 -12 -43 -7 -19 8 -19 8 3 15 12 3 22 10 22
15 0 14 -26 10 -39 -5 -14 -16 -53 -17 -48 -1 2 5 22 14 44 19 34 7 57 3 133
-23 51 -17 98 -28 104 -24 6 3 7 2 3 -2 -9 -11 72 -37 86 -28 6 4 7 1 3 -6 -5
-8 -3 -11 5 -10 18 4 81 -11 94 -22 6 -4 26 -11 45 -14 19 -3 40 -11 47 -17 7
-6 32 -11 56 -12 23 -1 48 -5 56 -10 10 -7 12 -5 6 5 -6 11 -5 12 6 2 7 -7 22
-13 34 -13 11 0 34 -7 50 -16 17 -8 41 -17 55 -19 24 -4 152 -41 359 -104 175
-54 121 -29 -82 38 -106 34 -199 66 -207 70 -8 5 -40 14 -70 21 -30 7 -75 20
-100 30 -74 29 -233 81 -265 87 -16 3 -37 11 -45 18 -8 7 -30 16 -47 20 -36 7
-133 74 -133 91 0 15 -63 47 -145 75 -76 26 -94 38 -87 57 2 6 -1 12 -7 12 -6
0 -11 10 -11 23 0 12 -7 30 -14 40 -13 17 -15 17 -28 -9z m241 -423 c13 -9 12
-23 -5 -66 -7 -18 -6 -19 11 -5 17 14 18 13 12 -2 -9 -24 9 -23 26 2 13 19 14
19 27 -8 l14 -27 4 28 c3 24 7 27 41 27 22 0 44 -6 51 -15 14 -17 35 -20 24
-4 -4 7 -2 9 7 6 8 -3 46 -15 84 -27 39 -12 117 -39 175 -60 58 -22 185 -65
282 -96 171 -55 177 -58 202 -96 30 -47 31 -50 11 -88 -16 -31 -40 -40 -48
-17 -2 6 -14 -21 -26 -61 -29 -97 -48 -115 -110 -108 -43 4 -98 22 -111 36 -3
3 -45 18 -95 34 -49 17 -94 33 -100 36 -9 6 -45 18 -194 62 -23 7 -40 7 -55 0
-11 -6 -47 -12 -78 -14 -52 -3 -57 -1 -54 17 2 15 13 22 42 26 l39 6 -36 2
c-35 1 -61 -15 -97 -61 -10 -13 -10 -17 3 -22 9 -3 13 -2 10 4 -3 6 -1 10 4
10 6 0 11 -4 11 -9 0 -5 17 -15 38 -21 20 -6 75 -27 122 -45 215 -85 486 -169
543 -169 20 0 37 -4 37 -9 0 -4 5 -5 10 -2 6 3 10 -1 10 -10 0 -8 -6 -18 -14
-21 -8 -3 -17 -16 -20 -28 -3 -12 -13 -39 -21 -60 -16 -38 -17 -38 -34 -19
-23 24 -37 29 -226 89 -301 95 -451 166 -475 224 -12 29 -50 43 -50 19 0 -6 7
-9 15 -5 9 3 15 0 15 -9 0 -32 168 -145 216 -145 8 0 14 -5 14 -11 0 -6 6 -9
13 -6 6 2 43 -9 81 -25 38 -15 86 -33 107 -38 22 -6 39 -15 39 -20 0 -5 -13
-5 -31 0 -16 5 -37 6 -45 3 -9 -3 -14 0 -12 7 2 7 -3 15 -11 18 -9 3 -11 0 -6
-8 8 -13 -9 -4 -55 28 -19 14 -23 14 -18 2 4 -11 -2 -16 -24 -17 -25 -2 -28 0
-18 12 10 12 9 15 -9 15 -11 0 -20 6 -19 13 2 6 -4 12 -12 12 -8 0 -21 6 -29
13 -8 8 -25 12 -38 9 -13 -2 -21 -2 -19 1 3 2 -6 14 -20 25 -22 17 -28 18 -36
6 -8 -11 -9 -11 -5 3 6 16 -19 35 -25 19 -2 -5 -12 -5 -23 0 -18 7 -18 8 4 8
24 1 21 16 -2 16 -7 1 -11 6 -9 13 1 7 -5 12 -14 12 -8 0 -12 5 -9 10 3 6 2
10 -3 10 -5 0 -14 12 -20 26 -7 14 -17 22 -22 19 -6 -3 -10 -1 -10 5 0 6 -4 8
-10 5 -5 -3 -10 -1 -10 4 0 17 38 13 48 -5 6 -11 12 -13 16 -6 3 6 -4 18 -16
26 -18 13 -19 16 -6 16 9 0 24 -10 32 -22 9 -12 16 -17 16 -11 0 6 -7 16 -15
23 -8 7 -13 15 -11 19 2 3 -12 13 -31 23 -32 15 -33 15 -20 0 14 -15 11 -21
-23 -53 -26 -25 -36 -31 -33 -18 3 11 10 19 15 19 5 0 7 8 4 18 -4 11 0 35 9
55 21 51 17 60 -6 12 -16 -35 -19 -37 -19 -15 -1 23 -2 23 -10 5 -5 -11 -9
-16 -9 -11 -1 5 -7 3 -14 -3 -8 -6 -17 -8 -20 -4 -4 3 -7 0 -7 -7 0 -7 -10
-21 -22 -31 -14 -13 -17 -19 -7 -19 10 -1 10 -3 -3 -10 -18 -11 -48 -3 -48 12
0 6 -7 4 -17 -3 -15 -13 -15 -12 -6 6 6 11 8 26 6 33 -3 6 0 12 6 12 6 0 11
-7 11 -16 0 -13 6 -15 27 -9 42 10 58 52 24 63 -10 3 -12 -1 -8 -14 7 -18 6
-18 -6 -2 -11 14 -16 15 -27 5 -10 -10 -11 -6 -7 18 4 17 4 24 1 17 -3 -6 -9
-10 -14 -7 -4 3 -11 -7 -14 -21 -4 -15 -9 -24 -12 -21 -8 8 42 151 93 264 35
79 51 104 72 113 20 8 21 9 4 6 -20 -3 -21 -1 -12 15 5 10 12 19 15 19 3 0 2
-4 -1 -10 -3 -5 -1 -10 4 -10 6 0 11 5 11 10 0 6 7 10 15 10 8 0 15 4 15 9 0
4 12 6 26 3 19 -3 25 -1 20 7 -8 13 3 14 23 2z"/>
<path d="M2592 3779 c-10 -16 -16 -18 -27 -9 -10 8 -13 7 -11 -7 1 -23 47 -53
116 -77 64 -22 82 -36 120 -92 21 -31 30 -59 35 -112 9 -90 3 -107 -34 -106
-40 1 -170 -21 -204 -35 -16 -6 -33 -9 -38 -5 -5 3 -9 0 -9 -5 0 -6 -9 -11
-20 -11 -11 0 -20 -5 -20 -10 0 -12 47 -8 195 16 152 25 333 90 443 161 29 18
57 31 62 28 5 -3 11 -1 15 5 3 5 1 10 -5 10 -18 0 33 59 52 59 9 1 23 13 31
29 7 15 19 26 25 24 7 -1 12 2 12 8 0 15 -16 12 -31 -6 -12 -14 -14 -14 -26 3
-8 10 -17 18 -21 17 -17 -2 -41 9 -37 16 13 22 -63 -13 -83 -37 -12 -16 -27
-27 -32 -25 -6 1 -10 -5 -10 -13 0 -8 -7 -15 -15 -15 -8 0 -15 -4 -15 -9 0
-17 -67 -51 -102 -51 -42 0 -68 25 -68 66 0 36 -25 74 -48 74 -10 0 -23 9 -29
19 -9 15 -185 111 -203 111 -3 0 -11 -9 -18 -21z"/>
<path d="M2805 2920 c16 -7 17 -9 3 -9 -11 -1 -15 -7 -11 -21 3 -12 1 -20 -5
-18 -5 2 -9 -1 -9 -7 1 -5 7 -9 13 -7 6 1 15 -5 18 -14 6 -15 4 -15 -11 -3
-15 12 -16 12 -11 -2 5 -12 0 -15 -20 -13 -15 1 -35 2 -46 3 -14 1 -17 7 -14
26 3 13 1 22 -3 19 -5 -3 -9 -12 -9 -20 0 -8 -5 -14 -11 -14 -5 0 -7 5 -3 12
4 6 3 8 -4 5 -5 -4 -7 -17 -4 -30 5 -21 5 -21 -12 -5 -13 14 -15 22 -6 37 5
11 10 22 10 25 0 10 -52 -2 -60 -14 -4 -7 -13 -10 -19 -6 -7 5 -9 1 -4 -11 5
-14 3 -16 -7 -6 -11 10 -17 8 -32 -10 -11 -12 -27 -22 -35 -22 -9 0 -18 -6
-20 -13 -3 -7 1 -10 11 -6 22 9 20 -8 -5 -35 -12 -12 -28 -20 -37 -17 -9 3
-24 1 -32 -4 -12 -7 -10 -11 10 -18 17 -6 28 -5 38 5 12 12 17 12 31 -2 10 -8
23 -15 29 -15 7 0 12 -3 12 -6 0 -9 -22 -48 -38 -66 -17 -21 -38 -13 -21 8 9
11 8 14 -5 14 -10 0 -14 5 -10 11 7 12 -12 29 -33 29 -7 0 -13 -4 -13 -10 0
-5 7 -7 15 -4 8 4 15 1 15 -5 0 -6 -5 -11 -11 -11 -5 0 -7 -4 -4 -10 10 -16
-5 -12 -30 9 -17 12 -21 21 -14 28 8 8 7 13 -2 18 -8 6 -10 4 -4 -5 6 -10 4
-12 -11 -6 -10 4 -15 4 -11 0 4 -4 2 -13 -4 -20 -8 -10 -4 -22 16 -48 15 -20
32 -33 37 -30 6 4 5 10 -3 15 -11 7 -11 9 2 9 9 0 22 -7 30 -16 11 -14 10 -15
-7 -12 -11 2 -18 -2 -16 -9 4 -21 -36 -15 -43 6 -6 21 -45 59 -45 44 0 -6 9
-22 21 -37 11 -14 16 -26 10 -26 -6 0 -11 5 -11 10 0 6 -5 10 -11 10 -5 0 -7
-5 -4 -10 4 -6 1 -18 -6 -26 -17 -21 5 -59 46 -78 18 -9 38 -23 45 -31 11 -13
15 -13 21 -3 13 20 11 28 -10 28 -10 0 -24 7 -31 15 -10 12 -7 13 20 5 28 -8
33 -7 37 10 3 11 9 20 14 20 14 0 11 28 -3 33 -7 2 -10 8 -6 12 4 4 22 -2 41
-13 36 -21 83 -26 93 -10 8 13 -17 29 -31 20 -16 -10 -45 -13 -46 -4 -7 44 -6
62 3 62 5 0 12 -9 15 -20 4 -16 8 -18 19 -9 11 9 14 8 14 -1 0 -9 3 -10 13 -1
8 6 17 8 20 5 3 -4 14 -3 24 1 10 5 20 9 23 9 3 1 18 14 35 29 27 26 30 27 36
10 8 -20 10 -18 14 12 5 39 24 74 50 91 18 12 24 22 20 35 -4 11 -2 19 5 19 6
0 9 -4 6 -9 -8 -12 36 -19 62 -10 11 4 25 16 30 26 9 15 6 18 -19 17 -16 0
-32 -4 -36 -7 -10 -11 -33 -8 -33 4 0 5 5 7 12 3 6 -4 8 -3 4 4 -3 5 0 13 6
16 7 3 3 3 -9 0 -18 -4 -23 -1 -23 14 0 27 21 42 51 36 l24 -5 -25 12 c-14 6
-38 13 -55 15 -24 2 -26 1 -10 -6z"/>
<path d="M1933 2751 c-45 -24 -129 -121 -154 -177 -12 -29 -22 -73 -23 -106
-1 -56 -11 -66 -18 -18 -1 14 -10 25 -18 26 -31 2 -35 5 -20 14 8 5 11 12 7
16 -8 8 -47 -29 -47 -44 0 -5 -10 -17 -22 -28 -19 -16 -20 -16 -9 -1 12 15 12
17 -3 11 -9 -3 -16 -10 -16 -15 0 -5 -4 -9 -10 -9 -16 0 -12 37 5 44 8 3 15
12 15 20 0 9 -6 13 -14 10 -19 -7 -56 -107 -50 -136 5 -20 4 -21 -6 -6 -8 13
-8 29 -1 53 6 24 6 35 -1 35 -16 0 1 50 28 83 13 16 24 34 24 40 0 7 -4 6 -10
-3 -7 -10 -10 -11 -10 -2 0 10 -4 10 -20 0 -13 -9 -16 -15 -7 -20 13 -8 2 -23
-16 -23 -8 0 -11 -15 -10 -39 3 -43 -11 -68 -33 -59 -10 4 -12 0 -7 -13 5 -13
3 -16 -9 -11 -10 3 -19 -1 -23 -11 -5 -14 -7 -14 -15 -2 -7 12 -12 12 -22 2
-20 -20 -28 -14 -16 13 6 14 17 25 25 25 7 0 13 5 13 10 0 6 5 10 11 10 5 0 8
-4 4 -9 -3 -5 0 -13 6 -17 8 -5 10 1 7 20 -4 21 0 31 18 43 24 15 32 33 15 33
-5 0 -32 -22 -62 -50 -29 -27 -59 -52 -66 -54 -8 -3 -12 -10 -9 -15 3 -5 -1
-14 -9 -21 -20 -17 -19 -40 3 -40 9 -1 -3 -11 -27 -22 -32 -16 -48 -32 -62
-62 -19 -42 -16 -61 7 -52 25 9 24 -11 -2 -24 -35 -19 -52 -1 -35 36 10 23 10
26 -4 20 -28 -10 2 31 48 66 24 18 42 39 39 47 -3 8 -25 -7 -62 -44 -41 -40
-60 -53 -65 -44 -6 8 -4 10 6 4 8 -5 11 -4 6 0 -4 5 5 23 20 40 16 17 -4 -2
-43 -44 -46 -47 -70 -80 -66 -89 3 -10 1 -13 -6 -8 -6 3 -14 1 -18 -5 -5 -8
-2 -10 7 -5 8 4 5 0 -6 -9 -11 -9 -19 -21 -17 -26 1 -6 -2 -8 -7 -5 -5 3 -15
-2 -22 -11 -10 -12 -10 -14 -1 -9 18 11 15 -9 -5 -25 -14 -12 -16 -12 -9 1 4
8 -4 2 -18 -14 -14 -17 -23 -33 -20 -38 3 -4 0 -8 -5 -8 -6 0 -22 -17 -36 -37
-13 -21 -38 -57 -55 -81 -16 -23 -30 -47 -30 -51 0 -5 -7 -11 -15 -15 -8 -3
-14 -11 -13 -18 2 -7 -4 -12 -12 -10 -8 2 -12 0 -8 -4 4 -4 -6 -25 -22 -47
-16 -22 -27 -45 -23 -51 3 -6 3 -8 -2 -4 -10 10 -36 -26 -32 -44 2 -7 2 -9 -1
-5 -2 4 -10 3 -18 -4 -12 -9 -12 -15 -2 -27 10 -12 10 -14 1 -8 -16 9 -52 -24
-58 -54 -3 -13 -8 -26 -12 -29 -5 -3 -16 -16 -26 -28 -19 -21 -19 -22 5 -16
18 4 20 2 8 -6 -8 -5 -11 -13 -8 -17 10 -10 40 4 33 16 -3 5 0 7 8 4 8 -3 17
-16 19 -29 4 -16 1 -22 -9 -18 -23 9 -15 -33 10 -45 12 -6 17 -11 10 -11 -7
-1 -24 10 -39 24 -15 14 -34 23 -41 20 -8 -2 -12 -1 -9 3 3 4 -4 14 -15 21
-18 10 -21 9 -26 -8 -3 -11 -11 -22 -19 -25 -8 -3 -14 -12 -14 -20 0 -8 -6
-16 -12 -19 -9 -3 -7 -10 7 -21 24 -21 145 -78 200 -96 22 -7 44 -16 49 -21 6
-5 17 -9 26 -9 9 0 48 -16 87 -35 39 -19 83 -35 96 -35 14 0 72 -15 129 -34
183 -60 212 -68 268 -71 30 -2 64 -6 75 -11 11 -4 2 6 -20 23 -22 16 -46 37
-54 46 -12 15 -11 17 6 17 11 0 42 -22 69 -48 48 -48 83 -66 110 -55 10 4 6
13 -16 34 -16 16 -27 35 -24 42 3 10 -16 17 -68 26 -40 7 -85 15 -100 18 -22
4 -28 1 -28 -11 0 -10 4 -15 8 -12 5 3 24 -10 42 -29 19 -19 29 -35 22 -35
-22 0 -82 37 -103 64 -12 15 -24 24 -27 21 -3 -3 10 -22 29 -42 31 -33 31 -35
7 -20 -15 9 -34 17 -42 17 -8 0 -28 17 -46 37 -24 29 -30 33 -25 16 9 -31 -6
-29 -38 5 -31 32 -34 42 -12 42 9 0 15 -9 16 -22 0 -20 2 -21 11 -7 9 13 17
15 40 7 15 -6 28 -13 28 -16 0 -4 14 -7 30 -7 44 0 37 11 -17 25 -27 7 -56 14
-66 17 -10 3 -16 7 -13 10 2 3 42 -4 88 -16 114 -27 277 -61 299 -61 20 0 22
7 59 175 27 120 68 256 104 344 14 35 24 66 23 68 -2 2 -15 -5 -28 -15 -13
-11 -35 -23 -49 -27 -18 -6 -11 5 30 44 34 33 43 45 23 32 -42 -28 -65 -26
-30 2 l27 23 -26 -1 c-15 0 -29 6 -32 13 -3 11 0 12 17 3 24 -13 26 -9 9 18
-9 15 -9 23 1 35 7 9 17 13 23 10 5 -3 4 -11 -3 -20 -9 -11 -8 -15 5 -20 36
-14 65 23 70 89 3 36 -5 34 -28 -6 -11 -19 -21 -27 -23 -19 -3 7 1 19 8 28 10
13 8 13 -15 4 -24 -9 -29 -8 -33 10 -3 11 -10 20 -15 20 -5 0 -8 6 -5 13 2 6
-8 17 -22 24 l-26 11 28 1 c24 1 27 4 22 22 -6 17 -3 20 15 17 13 -2 27 -13
31 -25 5 -13 5 -22 1 -22 -32 5 -46 -23 -17 -34 17 -7 52 34 62 71 6 24 6 24
19 -8 20 -46 17 -131 -5 -190 -30 -78 -10 -59 31 30 33 73 35 80 17 80 -11 0
-19 7 -19 16 0 10 6 14 15 11 29 -12 27 16 -3 39 -21 17 -29 30 -25 44 3 11
11 20 18 20 7 0 18 14 24 31 10 31 13 31 54 26 28 -4 48 -2 57 6 10 9 12 9 8
-3 -3 -8 -15 -16 -27 -18 -15 -2 -21 -9 -17 -18 3 -8 1 -14 -5 -14 -6 0 -7 -4
-4 -10 11 -18 -17 -11 -31 8 -10 14 -15 15 -25 4 -11 -10 -9 -15 9 -28 12 -8
22 -25 22 -36 0 -15 16 2 52 53 29 41 51 78 49 84 -1 5 1 7 5 2 10 -10 55 33
47 46 -3 6 -2 7 4 4 5 -4 22 6 36 21 l26 27 -40 43 -40 42 -67 -7 c-75 -9
-115 -6 -107 8 4 5 16 7 29 3 31 -7 146 21 204 50 82 42 142 126 142 198 0 41
-20 106 -40 135 -9 11 -33 31 -55 44 -50 30 -155 35 -202 10z m127 -60 c-6
-12 -6 -22 -1 -26 5 -3 12 4 16 15 8 27 41 43 71 36 19 -5 24 -13 24 -40 0
-28 -5 -36 -30 -46 -17 -7 -28 -15 -25 -18 3 -3 16 1 30 8 32 17 43 6 20 -20
-10 -11 -13 -20 -7 -20 27 0 9 -20 -25 -29 -58 -17 -64 -15 -53 15 13 34 -4
66 -33 63 -12 -1 -30 2 -41 6 -11 5 -21 3 -26 -5 -5 -8 -10 -9 -14 -2 -7 12 9
59 27 81 10 12 13 8 18 -20 5 -29 7 -31 13 -14 26 69 27 70 37 52 6 -11 6 -24
-1 -36z m0 -92 c0 -3 -3 -9 -7 -12 -3 -4 -6 -24 -6 -44 0 -49 -28 -89 -75
-104 -20 -6 -63 -25 -96 -41 -32 -16 -66 -31 -75 -33 -9 -2 -24 -7 -34 -11
-15 -5 -13 -1 6 18 13 13 32 49 42 79 31 97 70 139 140 151 31 6 105 4 105 -3z
m-359 -163 c10 6 12 -7 3 -30 -3 -9 -16 -16 -28 -16 -11 0 -28 -5 -36 -11 -13
-9 -12 -10 3 -5 9 3 24 3 32 0 17 -7 21 -44 5 -44 -5 0 -10 5 -10 10 0 6 -4
10 -10 10 -5 0 -10 -7 -10 -15 0 -27 49 -29 99 -5 l46 22 -22 -24 c-28 -30
-29 -59 -3 -83 17 -15 23 -16 33 -6 9 11 9 14 0 18 -18 6 -16 23 2 23 7 0 19
-8 24 -17 9 -16 10 -16 11 5 0 23 15 28 39 13 10 -6 10 -10 1 -16 -6 -4 -15
-18 -20 -31 -6 -14 -20 -29 -32 -34 -13 -5 -17 -9 -10 -9 19 -1 14 -21 -5 -21
-25 1 -60 30 -72 60 -7 18 -10 20 -10 7 -1 -21 -30 -67 -42 -67 -5 0 -5 8 1
18 5 9 17 35 27 57 9 22 19 44 21 48 2 5 -15 -1 -39 -13 -39 -20 -45 -21 -68
-7 -28 16 -80 31 -96 28 -5 0 -1 6 9 14 23 18 36 19 36 4 0 -5 -5 -7 -12 -3
-6 4 -8 3 -5 -4 4 -5 16 -8 26 -5 10 3 22 0 25 -6 4 -6 17 -11 29 -11 l22 1
-23 12 c-13 7 -29 26 -37 41 -15 29 -20 55 -9 43 4 -3 18 3 32 13 13 11 31 20
38 20 8 0 13 3 13 8 -3 16 3 26 8 14 2 -6 9 -10 14 -6z m-53 -233 c-27 -32
-33 -47 -15 -40 19 7 47 -17 47 -41 0 -29 -24 -88 -43 -107 -10 -10 -16 -24
-13 -31 3 -8 1 -14 -3 -14 -10 0 -7 92 3 108 8 14 -3 62 -15 62 -5 0 -6 -13
-3 -29 8 -38 -28 -106 -66 -126 -17 -9 -30 -13 -30 -11 0 3 -11 1 -25 -4 -23
-9 -24 -8 -13 10 7 11 23 20 35 20 12 0 25 5 29 12 5 8 0 9 -14 6 -24 -7 -28
2 -11 19 14 14 51 5 42 -11 -4 -6 1 -5 9 2 24 19 12 45 -13 31 -27 -14 -24 3
6 35 29 31 30 36 10 36 -9 0 -20 -11 -27 -25 -6 -13 -15 -22 -19 -19 -5 3 -9
-4 -9 -15 0 -11 -5 -23 -12 -27 -7 -5 -8 -3 -3 6 5 9 4 11 -3 6 -7 -4 -12 -16
-12 -27 0 -26 -52 -79 -78 -79 -11 0 -24 6 -30 13 -9 10 -3 12 24 12 37 -2 56
14 73 56 6 18 6 30 -1 37 -13 13 -1 35 15 26 7 -4 9 -4 6 0 -10 11 37 57 60
59 31 2 26 17 -6 17 -18 0 -38 -13 -63 -40 -20 -22 -43 -40 -51 -40 -10 1 -9
4 4 11 9 6 15 14 12 19 -3 4 10 18 29 29 18 12 40 29 47 38 13 15 12 15 -9 4
-13 -7 -26 -11 -28 -8 -11 10 56 28 78 21 13 -4 27 -7 32 -6 4 2 5 -9 2 -23
-4 -14 -2 -25 4 -25 5 0 10 5 10 12 0 6 10 22 22 35 25 27 38 31 16 6z m34
-340 c3 -39 -20 -83 -42 -83 -12 0 -17 -7 -15 -22 5 -48 8 -52 15 -18 5 29 8
32 15 16 5 -12 0 -35 -18 -71 -24 -50 -25 -65 -4 -65 5 0 7 7 3 15 -3 8 -1 15
5 15 6 0 9 -10 7 -22 -4 -33 -35 -35 -50 -3 -8 18 -14 22 -20 13 -5 -8 -8 0
-8 21 0 33 -1 34 -15 15 -16 -19 -16 -19 -13 1 2 11 16 26 31 33 15 7 27 20
27 28 0 20 -16 17 -39 -8 -17 -17 -23 -19 -36 -8 -20 17 -19 34 3 26 14 -5 14
-4 -2 9 -22 17 -36 19 -36 6 0 -5 -8 -8 -17 -7 -24 2 -29 -31 -6 -37 15 -4 15
-5 2 -6 -27 -2 -42 24 -29 48 11 22 23 25 82 22 27 -2 40 2 44 14 9 24 -4 31
-29 16 -14 -10 -22 -10 -25 -3 -2 7 -17 9 -35 6 -31 -4 -31 -4 -7 7 17 8 21
13 11 16 -8 3 2 11 25 19 51 18 57 17 49 -3 -5 -14 -3 -15 6 -6 9 9 16 7 30
-10 10 -12 18 -17 19 -10 0 6 -6 13 -12 16 -7 2 -10 8 -5 13 4 4 15 0 25 -9
14 -14 14 -21 4 -37 -17 -27 2 -25 28 3 16 16 21 32 18 59 -2 21 0 34 4 30 4
-4 8 -22 10 -39z m-384 -420 l21 -28 29 28 c25 24 34 27 50 18 10 -6 25 -25
32 -43 7 -18 20 -41 28 -50 18 -22 3 -24 -24 -3 -25 19 -38 19 -30 0 4 -12 2
-13 -14 -2 -11 6 -20 22 -20 34 0 14 -6 23 -15 23 -22 0 -29 -25 -16 -62 11
-30 9 -34 -29 -73 -22 -22 -40 -47 -40 -55 0 -11 -3 -11 -12 -2 -9 9 -9 18 0
37 7 15 8 24 2 20 -13 -8 -13 1 1 27 8 15 8 19 0 14 -20 -13 -12 12 14 42 14
17 25 37 25 46 0 24 -27 19 -33 -6 -4 -13 -13 -32 -22 -43 -15 -19 -15 -19 -9
10 4 17 13 37 20 46 20 22 17 29 -8 29 -19 0 -20 2 -8 10 24 16 37 12 58 -17z
m252 -82 c0 -5 -7 -11 -15 -15 -8 -3 -15 -11 -15 -18 0 -6 13 0 28 15 30 29
48 33 72 17 22 -15 -7 -32 -32 -19 -21 11 -25 -3 -5 -23 31 -33 -4 -83 -51
-71 -18 4 -23 2 -20 -8 3 -9 16 -13 36 -11 18 2 32 -1 32 -7 0 -6 -5 -11 -12
-11 -6 0 -2 -9 10 -20 14 -13 19 -26 14 -38 -6 -16 -7 -16 -10 1 -2 11 -13 17
-33 17 -18 0 -28 4 -24 10 3 6 1 10 -4 10 -6 0 -11 -6 -11 -12 0 -10 -2 -10
-9 0 -4 7 -6 25 -3 39 4 22 2 24 -17 18 -13 -4 -21 -2 -21 5 0 7 -7 10 -15 6
-20 -7 -52 51 -36 67 8 8 14 8 23 -1 17 -17 33 -15 18 3 -7 8 -8 15 -3 15 16
0 33 -24 33 -47 0 -13 5 -23 11 -23 6 0 8 11 4 28 -4 20 0 36 15 55 21 27 40
35 40 18z"/>
<path d="M6330 2718 c0 -4 12 -11 28 -14 15 -4 33 -11 40 -17 6 -5 12 -7 12
-4 0 3 37 -8 83 -25 45 -16 165 -59 267 -94 102 -34 219 -75 260 -90 153 -54
419 -147 555 -194 202 -70 819 -280 822 -280 2 0 33 62 33 66 0 2 -6 1 -13 -2
-8 -3 -81 18 -163 45 -83 27 -168 53 -190 57 -21 3 -43 9 -49 13 -5 3 -18 7
-28 8 -10 2 -28 9 -40 17 -12 8 -40 17 -62 21 -60 10 -387 114 -1112 355 -244
80 -443 143 -443 138z"/>
<path d="M2483 2473 c9 -2 17 -10 17 -17 0 -8 33 -22 78 -35 42 -12 92 -29
110 -37 18 -7 48 -14 66 -14 18 0 36 -3 40 -7 3 -4 16 -8 29 -10 12 -2 25 -10
30 -18 4 -8 16 -15 25 -15 15 0 15 -2 2 -10 -9 -6 -10 -10 -3 -10 22 0 25 21
3 27 -16 4 -18 8 -9 14 7 4 18 4 24 -1 7 -6 15 -2 22 8 10 16 5 18 -44 19 -54
1 -85 15 -69 30 4 4 11 1 17 -7 8 -13 10 -13 18 -1 5 8 18 12 31 8 14 -3 20
-1 17 6 -2 7 -12 12 -23 12 -10 1 -25 5 -33 9 -14 9 -43 13 -108 17 -18 1 -30
5 -28 9 3 4 -22 6 -56 4 -45 -3 -58 -1 -53 9 6 9 3 8 -8 -1 -17 -14 -68 -7
-68 9 0 5 -10 8 -22 8 -17 -1 -19 -2 -5 -6z"/>
<path d="M5370 2405 c0 -9 -6 -15 -12 -14 -7 1 -20 0 -28 -4 -8 -3 -22 -7 -30
-10 -8 -2 5 -10 30 -16 25 -7 60 -19 78 -27 18 -8 46 -13 62 -10 20 3 30 0 30
-8 0 -17 181 -76 211 -70 16 4 20 3 12 -3 -27 -19 200 -76 262 -66 30 5 36 3
30 -7 -5 -9 -4 -11 4 -6 19 12 -6 35 -30 29 -12 -4 -25 0 -31 8 -8 11 -9 10
-4 -4 5 -15 3 -16 -15 -7 -11 6 -16 16 -13 22 4 6 3 8 -4 4 -5 -3 -13 0 -16 6
-3 10 -9 8 -20 -5 -14 -18 -15 -18 -34 1 -10 10 -18 26 -16 35 3 21 -12 22
-24 2 -7 -13 -10 -11 -20 10 -7 14 -17 23 -22 20 -6 -3 -10 1 -10 9 0 8 -5 18
-10 21 -6 4 -8 -7 -5 -29 6 -34 6 -34 -19 -23 -27 12 -37 31 -12 21 8 -3 17
-1 21 5 6 10 -8 16 -29 12 -4 -1 -14 4 -22 10 -11 9 -14 8 -14 -4 0 -8 6 -17
13 -20 6 -2 9 -8 5 -12 -4 -4 -14 2 -24 14 -10 11 -21 18 -26 15 -4 -3 -5 3
-1 12 5 13 3 16 -10 11 -11 -4 -22 2 -32 16 l-15 22 -6 -21 c-6 -22 -34 -23
-61 -1 -7 5 -13 6 -13 1 0 -4 -10 2 -22 13 -13 11 -33 24 -45 27 -11 4 -27 13
-33 21 -16 19 -30 19 -30 0z"/>
<path d="M7875 2256 c187 -63 383 -130 436 -149 88 -32 96 -33 92 -16 -3 10 0
25 6 32 6 8 10 29 9 48 -1 19 2 53 6 75 10 54 -14 117 -40 107 -13 -5 -15 -3
-9 7 6 9 4 11 -4 6 -7 -5 -10 -14 -7 -22 3 -9 -3 -16 -17 -19 -83 -19 -107
-21 -118 -14 -8 5 -10 9 -5 9 5 0 3 7 -4 15 -7 8 -18 15 -24 15 -6 0 -4 -5 4
-10 13 -9 13 -10 0 -11 -8 -1 -19 -1 -23 0 -66 11 -78 11 -73 3 3 -5 -5 -8
-17 -7 -12 2 -28 -4 -36 -12 -11 -13 -10 -14 10 -11 35 5 32 -33 -4 -45 -32
-10 -91 11 -77 28 6 7 -2 10 -26 10 -19 -1 -38 3 -41 8 -4 6 -1 7 8 2 11 -6
11 -5 2 5 -7 8 -19 10 -30 5 -12 -5 -14 -9 -5 -12 16 -6 6 -23 -14 -23 -8 0
-13 4 -9 9 3 6 -9 13 -27 16 -74 13 -126 25 -193 44 -38 12 -79 21 -90 21 -11
0 133 -51 320 -114z"/>
<path d="M3374 2217 c-3 -10 -18 -11 -57 -6 -94 13 -189 9 -232 -11 -35 -16
-37 -19 -14 -19 33 -1 79 -23 79 -38 0 -10 82 -30 101 -25 4 1 6 -23 5 -53 -1
-51 0 -55 26 -66 15 -6 34 -9 43 -5 26 10 16 -8 -18 -31 -62 -44 -115 -100
-122 -131 -4 -22 1 -53 17 -99 l23 -68 6 45 c3 25 7 35 7 23 3 -30 19 -38 27
-13 4 11 10 18 14 15 4 -2 6 18 3 45 -2 27 1 71 7 97 12 48 54 103 78 103 7 0
13 4 13 10 0 5 10 14 21 21 17 9 20 8 13 -3 -4 -7 13 9 39 36 31 34 48 62 52
87 l6 36 72 -27 c80 -30 145 -60 165 -75 61 -47 92 -88 108 -142 21 -69 20
-179 -1 -230 -8 -19 -12 -45 -9 -58 3 -13 0 -26 -6 -30 -9 -5 -10 -1 -6 16 7
23 6 23 -8 5 -12 -14 -13 -23 -5 -33 9 -10 8 -13 -1 -13 -8 0 -10 -3 -7 -6 9
-9 -59 -69 -123 -108 -56 -35 -126 -58 -215 -72 -27 -4 -41 -9 -29 -11 68 -12
280 67 340 126 38 37 84 110 78 125 -3 7 0 26 7 42 6 16 13 40 15 52 3 13 11
41 18 61 15 46 14 61 -12 129 -24 62 -57 107 -119 165 -71 66 -91 76 -145 73
-26 -1 -48 2 -48 6 0 4 -12 8 -26 8 -14 0 -23 3 -21 8 3 4 -5 8 -16 8 -87 6
-138 18 -133 30 3 8 3 14 0 14 -2 0 -7 -6 -10 -13z"/>
<path d="M1993 1958 c-27 -30 -54 -84 -46 -92 4 -3 1 -6 -5 -6 -6 0 -27 -33
-46 -74 -19 -41 -40 -77 -45 -81 -6 -3 -11 -15 -11 -26 0 -10 -4 -19 -10 -19
-5 0 -10 -6 -10 -12 0 -7 -7 -26 -15 -41 -30 -59 -103 -324 -144 -523 l-17
-82 22 8 c12 5 25 6 29 2 4 -4 6 -2 4 3 -4 21 14 74 24 68 6 -4 7 -1 3 6 -11
16 14 142 26 135 5 -3 6 5 2 20 -3 15 -2 32 3 39 5 6 10 26 12 42 2 17 7 32
12 33 5 2 9 17 9 33 0 16 5 29 11 29 5 0 8 4 5 9 -3 5 1 14 9 21 8 7 15 21 15
31 0 10 9 42 20 70 12 29 19 58 16 66 -3 8 -1 11 4 8 13 -8 13 1 -2 28 -10 19
-9 20 4 9 13 -10 17 -10 22 3 3 9 2 24 -2 33 -6 11 -3 26 5 42 14 23 14 24 10
3 -3 -13 -1 -23 4 -23 9 0 13 14 10 39 -2 7 2 10 7 7 14 -8 23 19 11 31 -7 7
6 41 35 96 25 48 44 87 42 87 -1 0 -12 -10 -23 -22z"/>
<path d="M4153 1901 c17 -6 16 -8 -8 -19 -29 -13 -30 -34 -1 -38 13 -2 15 1 6
11 -8 9 -6 14 5 19 9 3 14 2 11 -3 -12 -19 64 -53 117 -52 9 0 17 -3 17 -7 0
-4 8 -8 18 -9 9 -1 51 -13 92 -28 41 -14 80 -27 85 -28 6 -2 17 -7 25 -12 12
-7 13 -6 4 6 -14 19 -11 45 5 41 7 -1 10 2 7 7 -7 11 -87 38 -136 46 -19 3
-44 9 -55 14 -11 5 -37 16 -57 25 -20 9 -60 21 -89 26 -59 11 -72 12 -46 1z"/>
</g>
</svg>
